#!OML:ASF C:\ViconDB\ViconDB\414\Spring2016\041811\Spring2016.ASF
:FULLY-SPECIFIED
:DEGREES
200
root 6.41021 20.2895 -13.1803 -170.723 -5.37818 179.053
lowerback 6.64925 0.936169 -3.59744
upperback -0.377721 0.98166 0.725643
thorax -4.19857 0.569914 2.67466
lowerneck -17.2884 0.745156 -8.39146
upperneck 22.1538 -0.149424 11.622
head 9.85801 0.313365 5.49233
rclavicle 5.61567e-015 2.38542e-015
rhumerus -12.7065 13.366 -59.014
rradius 114.116
rwrist -8.62396
rhand -33.2501 -18.6304
rfingers 7.12502
rthumb -6.45565 -48.512
lclavicle 5.61567e-015 2.38542e-015
lhumerus -9.1569 -6.62511 47.3347
lradius 93.2097
lwrist 11.9362
lhand -33.7673 13.3546
lfingers 7.12502
lthumb -6.95495 43.2203
rfemur -12.845 -18.2091 18.0108
rtibia 39.5002
rfoot -27.8713 5.93802
rtoes -14.1622
lfemur -9.21454 -0.307485 -15.1786
ltibia 30.1155
lfoot 9.34541 4.63379
ltoes -6.59476
201
root 6.40108 20.373 -13.3463 -170.949 -5.34649 179.158
lowerback 7.11903 0.974661 -3.26408
upperback -0.207404 1.03511 0.623729
thorax -4.28137 0.58419 2.37119
lowerneck -17.5509 1.01482 -7.98743
upperneck 22.2809 0.187959 11.3964
head 9.91623 0.488518 5.39376
rclavicle 1.99033e-014 3.97569e-015
rhumerus -12.8088 12.6119 -59.8545
rradius 113.808
rwrist -7.81922
rhand -33.2799 -18.9165
rfingers 7.12502
rthumb -6.48442 -48.7972
lclavicle 1.99033e-014 3.97569e-015
lhumerus -8.9403 -6.3698 47.8064
lradius 92.5618
lwrist 11.7645
lhand -33.8698 13.8906
lfingers 7.12502
lthumb -7.0539 43.7531
rfemur -12.7044 -18.088 18.3549
rtibia 37.574
rfoot -26.984 5.22759
rtoes -13.53
lfemur -9.49569 -0.637155 -15.0065
ltibia 29.3637
lfoot 8.79445 4.41378
ltoes -6.9821
202
root 6.39273 20.4449 -13.512 -171.104 -5.33491 179.263
lowerback 7.54275 0.978765 -3.14798
upperback -0.0241735 1.03307 0.669829
thorax -4.32764 0.576173 2.35049
lowerneck -17.8786 1.23861 -7.95532
upperneck 22.4371 0.511351 11.4034
head 9.99649 0.652582 5.44718
rclavicle 6.55989e-015 -1.78906e-015
rhumerus -12.8198 11.9639 -60.5391
rradius 113.387
rwrist -7.94892
rhand -32.9248 -18.1923
rfingers 7.12502
rthumb -6.14166 -48.0833
lclavicle 6.55989e-015 -1.78906e-015
lhumerus -8.90228 -5.61501 48.538
lradius 91.2648
lwrist 9.94232
lhand -33.2462 13.2563
lfingers 7.12502
lthumb -6.45187 43.1381
rfemur -12.5795 -17.8522 18.7135
rtibia 35.4072
rfoot -26.0335 4.56925
rtoes -13.3509
lfemur -9.83825 -1.02023 -14.8194
ltibia 28.4178
lfoot 7.995 3.9406
ltoes -6.88639
203
root 6.38895 20.5092 -13.6742 -171.173 -5.32009 179.091
lowerback 8.03579 1.01634 -3.32993
upperback 0.111647 1.0413 0.616375
thorax -4.46653 0.580523 2.39187
lowerneck -18.065 1.50922 -7.78656
upperneck 22.5472 0.887956 11.2787
head 10.0298 0.834652 5.42986
rclavicle -1.95803e-014 -1.39149e-015
rhumerus -13.1497 11.487 -61.4183
rradius 112.892
rwrist -7.52939
rhand -33.0964 -18.1011
rfingers 7.12502
rthumb -6.30731 -47.9872
lclavicle -1.95803e-014 -1.39149e-015
lhumerus -8.97443 -5.30661 49.425
lradius 90.4013
lwrist 9.41485
lhand -33.3689 13.35
lfingers 7.12502
lthumb -6.57035 43.2281
rfemur -12.5766 -17.3119 18.7954
rtibia 33.1919
rfoot -24.8488 3.8354
rtoes -12.8862
lfemur -10.2701 -1.50266 -14.8904
ltibia 27.3145
lfoot 6.83117 3.46642
ltoes -7.16316
204
root 6.38568 20.5529 -13.8332 -171.171 -5.3918 179.159
lowerback 8.58975 1.01275 -3.01313
upperback 0.172667 1.03612 0.486179
thorax -4.70532 0.569425 2.07259
lowerneck -18.2628 1.81313 -7.38483
upperneck 22.6987 1.2739 11.0048
head 10.0851 1.02271 5.32146
rclavicle 2.045e-014 -8.34896e-015
rhumerus -13.8048 10.4806 -62.7309
rradius 112.091
rwrist -7.05455
rhand -33.3242 -18.2388
rfingers 7.12502
rthumb -6.52719 -48.1182
lclavicle 2.045e-014 -8.34896e-015
lhumerus -9.05298 -5.23897 50.2624
lradius 89.6213
lwrist 8.78029
lhand -33.5488 14.4811
lfingers 7.12502
lthumb -6.74402 44.3537
rfemur -12.7647 -16.8831 19.1782
rtibia 30.9197
rfoot -23.792 3.16157
rtoes -12.2109
lfemur -10.8727 -2.07466 -14.6828
ltibia 26.1687
lfoot 5.74714 2.949
ltoes -7.52313
205
root 6.38211 20.5872 -13.9916 -171.019 -5.44115 179.043
lowerback 8.94173 1.04018 -3.09765
upperback 0.304698 1.04496 0.466387
thorax -4.76699 0.571118 2.09546
lowerneck -18.4412 2.10986 -7.03854
upperneck 22.7325 1.76507 10.4649
head 10.0897 1.23183 5.1347
rclavicle -9.24349e-015 3.57812e-015
rhumerus -14.2639 10.0374 -63.4924
rradius 111.286
rwrist -6.72756
rhand -33.8976 -18.9165
rfingers 7.12502
rthumb -7.08068 -48.7781
lclavicle -9.24349e-015 3.57812e-015
lhumerus -9.18499 -5.00595 51.4744
lradius 88.6488
lwrist 8.28358
lhand -33.9533 14.62
lfingers 7.12502
lthumb -7.13449 44.4797
rfemur -13.2021 -16.8746 19.3777
rtibia 28.7651
rfoot -23.091 2.46361
rtoes -12.34
lfemur -11.6544 -2.88807 -14.6036
ltibia 24.9598
lfoot 4.45703 2.7327
ltoes -7.71659
206
root 6.37744 20.6102 -14.1473 -170.86 -5.51019 179.074
lowerback 9.28288 1.00471 -2.89467
upperback 0.458193 0.99366 0.348443
thorax -4.78903 0.534037 1.86236
lowerneck -18.5647 2.32074 -6.71516
upperneck 22.5353 2.04789 10.3015
head 10.0214 1.38512 5.0511
rclavicle 7.82715e-015 -3.57812e-015
rhumerus -14.7382 9.49767 -64.5012
rradius 110.356
rwrist -6.35106
rhand -34.2603 -19.4776
rfingers 7.12502
rthumb -7.43085 -49.3271
lclavicle 7.82715e-015 -3.57812e-015
lhumerus -9.46289 -4.96458 52.4241
lradius 88.0539
lwrist 8.93055
lhand -34.5766 14.839
lfingers 7.12502
lthumb -7.73609 44.6775
rfemur -13.8042 -16.9034 19.7588
rtibia 26.7872
rfoot -22.2651 1.98211
rtoes -11.8678
lfemur -12.4966 -3.54465 -14.3308
ltibia 23.6909
lfoot 3.32379 2.58414
ltoes -7.71827
207
root 6.37348 20.6253 -14.2999 -170.663 -5.60227 179.048
lowerback 9.69041 0.991452 -2.79701
upperback 0.5991 0.96069 0.275169
thorax -4.86536 0.509448 1.73214
lowerneck -18.7602 2.42223 -6.62895
upperneck 22.4307 2.23695 10.1719
head 10.0059 1.47838 5.01562
rclavicle 1.61264e-014 7.15625e-015
rhumerus -15.3168 8.86982 -65.4435
rradius 109.219
rwrist -6.0607
rhand -34.477 -19.3039
rfingers 7.12502
rthumb -7.63994 -49.1459
lclavicle 1.61264e-014 7.15625e-015
lhumerus -9.70004 -4.87414 53.3958
lradius 87.2932
lwrist 8.45265
lhand -34.6938 15.6712
lfingers 7.12502
lthumb -7.84923 45.5055
rfemur -14.6863 -17.2525 20.1349
rtibia 25.1306
rfoot -21.9063 1.69375
rtoes -11.4783
lfemur -13.3238 -4.45988 -14.0655
ltibia 22.2686
lfoot 2.24838 2.87657
ltoes -8.29354
